# xmcd
#
# Track frame offsets: 
#        150
#        27300
#        47700
#        69395
#        91566
#        111753
#        132982
#        155356
#        174946
#        198816
#        222207
#
# Disc length: 3248 seconds
#
# Revision: 0
# Processed by: cddbd v1.5.2PL0 Copyright (c) Steve Scherf et al.
# Submitted via: ExactAudioCopy v0.99pb4
#
DISCID=870cae0b
DTITLE=Fernando Jose Wayra - Wawa killa
DYEAR=2008
DGENRE=Native American
TTITLE0=Heya-naya-yo
TTITLE1=Kutimunkichu
TTITLE2=Urpitay
TTITLE3=Wawa killa
TTITLE4=Chaska nahui
TTITLE5=Tears of rain
TTITLE6=Warmachallay
TTITLE7=Llau llau
TTITLE8=Heya-naha
TTITLE9=Wayra wawa
TTITLE10=Unirea
EXTD=
EXTT0=
EXTT1=
EXTT2=
EXTT3=
EXTT4=
EXTT5=
EXTT6=
EXTT7=
EXTT8=
EXTT9=
EXTT10=
PLAYORDER=
